<svg preserveAspectRatio="none" width="100%" height="100%" overflow="visible" style="display: block;" viewBox="0 0 11 12" fill="none" xmlns="http://www.w3.org/2000/svg">
<g id="Soda">
<path id="Vector" d="M4.44916 4.27851L0.921788 2.17725L0 3.82282L2.61788 5.37978L4.44916 4.27851Z" fill="var(--fill-0, #ECC100)"/>
<path id="Vector_2" d="M8.38212 5.37978L11 3.82282L10.0782 2.17725L6.53854 4.27851L8.38212 5.37978Z" fill="var(--fill-0, #ECC100)"/>
<path id="Vector_3" d="M5.49384 3.65823L6.41563 3.11392V0H4.57205V3.11392L5.49384 3.65823Z" fill="var(--fill-0, #ECC100)"/>
<path id="Vector_4" d="M11 8.1772L6.41564 5.45568L5.49386 4.91138L0 8.1772L0.921788 9.82277L3.66257 8.18986C3.7486 8.13922 3.84693 8.10125 3.95754 8.10125C4.30168 8.10125 4.57207 8.37973 4.57207 8.73416V12H6.41564V8.73416C6.41564 8.37973 6.68603 8.10125 7.03017 8.10125C7.14078 8.10125 7.23911 8.13922 7.32514 8.18986L10.0782 9.81011L11 8.1772Z" fill="var(--fill-0, #ECC100)"/>
</g>
</svg>
